<svg version="1.1" id="Layer_1" xmlns="http://www.w3.org/2000/svg" xmlns:xlink="http://www.w3.org/1999/xlink" x="0px" y="0px"
	 width="100%" viewBox="0 0 547 512" enable-background="new 0 0 547 512" xml:space="preserve">
<path fill="" opacity="1.000000" stroke="none" 
	d="
M202.233490,512.745239 
	C136.363617,513.000000 70.727180,512.972656 5.090974,513.082275 
	C1.867702,513.087646 0.892128,512.705872 0.894728,509.094452 
	C1.015749,341.005402 1.017615,172.916260 0.887096,4.827240 
	C0.884167,1.055300 2.109078,0.927652 5.169238,0.931135 
	C82.133644,1.018727 159.098175,1.000000 236.531342,1.000000 
	C238.032349,2.142365 239.053955,3.361327 240.754349,1.246058 
	C341.961945,1.000000 442.923950,1.016832 543.885803,0.922357 
	C547.060547,0.919386 548.110291,1.224168 548.107605,4.882906 
	C547.983643,172.986115 547.981873,341.089447 548.114624,509.192657 
	C548.117676,513.006409 546.829285,513.066895 543.810181,513.064819 
	C431.519257,512.987915 319.228302,513.000000 206.468658,513.000000 
	C204.712296,511.830750 204.782471,510.454224 205.345596,508.972351 
	C205.767624,507.861877 205.968628,506.731079 204.895294,505.844452 
	C204.354904,505.398193 203.649399,505.306824 203.084183,505.716217 
	C201.761902,506.674072 202.021057,507.959564 202.540268,509.230316 
	C202.992554,510.337341 203.166077,511.418579 202.233490,512.745239 
z"/>
<path fill="#D6A553" opacity="1.000000" stroke="none" 
	d="
M202.399994,513.000000 
	C203.293121,511.722809 201.761688,511.531952 201.202209,511.062378 
	C198.764389,509.016205 197.828522,506.302002 199.846909,503.891357 
	C201.917023,501.418884 205.251526,501.010132 207.614670,503.476196 
	C209.744553,505.698944 209.684723,508.498077 206.894348,510.675446 
	C206.263809,511.167450 205.824280,511.904236 205.648407,512.764160 
	C204.933334,513.000000 203.866653,513.000000 202.399994,513.000000 
z"/>
<path fill="#D5A451" opacity="1.000000" stroke="none" 
	d="
M240.600006,1.000000 
	C239.644958,1.896492 241.022949,2.664288 241.221725,3.387010 
	C241.586472,4.713276 243.012161,5.969775 240.837524,7.038303 
	C239.655136,7.619278 238.601807,8.495997 237.193634,7.543316 
	C235.626129,6.482866 235.834213,4.956269 236.210663,3.527951 
	C236.405563,2.788458 237.179718,2.201634 237.346100,1.272919 
	C238.066666,1.000000 239.133347,1.000000 240.600006,1.000000 
z"/>
<path fill="#D6A453" opacity="1.000000" stroke="none" 
	d="
M496.973328,158.052399 
	C503.407532,169.570694 508.783203,181.160156 512.988892,193.289993 
	C519.475220,211.997467 523.723999,231.084976 525.239868,250.937683 
	C526.141663,262.749115 526.324524,274.533997 525.788879,286.245148 
	C525.052063,302.354736 522.132202,318.257782 517.574951,333.815521 
	C511.256165,355.386841 501.805023,375.508942 489.947784,394.541290 
	C479.897644,410.672974 467.763062,425.202271 454.056732,438.241211 
	C437.651245,453.847900 419.564911,467.461639 399.349731,477.816101 
	C382.441071,486.476898 364.859344,493.449402 346.319580,498.237579 
	C331.225250,502.135925 316.007782,504.329651 300.602142,506.150024 
	C289.799652,507.426453 279.033661,507.123993 268.293213,506.828430 
	C258.368896,506.555328 248.516083,504.636383 238.647369,503.259705 
	C226.963348,501.629822 215.819595,498.289001 204.538132,495.251282 
	C192.266495,491.946960 180.745758,486.610260 169.042023,481.856995 
	C155.002594,476.155151 141.845078,468.582977 129.291016,460.053925 
	C113.330238,449.210297 99.180580,436.334564 85.932083,422.307800 
	C77.836243,413.736328 70.941811,404.323242 64.322914,394.709625 
	C48.302322,371.440430 38.029808,345.506409 31.348312,318.252502 
	C28.557627,306.869263 27.515896,295.036102 26.807129,283.204590 
	C26.161322,272.424072 25.681400,261.653564 26.111868,250.905579 
	C26.642588,237.654541 28.140421,224.487900 30.698851,211.401962 
	C34.332607,192.815842 40.328957,175.000137 48.224178,157.956146 
	C56.780575,139.484833 67.716988,122.365685 80.767868,106.556267 
	C96.444031,87.566650 114.432640,71.398743 134.987442,57.874874 
	C145.438431,50.998730 156.324081,45.147030 167.650925,39.872005 
	C181.802979,33.281250 196.411774,28.143682 211.594498,24.844067 
	C224.657578,22.005104 237.763687,19.472952 251.260986,18.748163 
	C261.211456,18.213837 271.145721,17.884357 281.067352,18.089102 
	C300.093933,18.481735 318.947510,21.105064 337.220337,26.264362 
	C356.252289,31.638004 374.670166,39.114742 391.606628,49.386902 
	C413.054657,62.395393 431.834015,78.829773 448.818756,97.305237 
	C452.359253,101.156494 456.254639,104.679008 459.910400,108.427223 
	C474.363098,123.245491 486.811249,139.574600 496.973328,158.052399 
z"/>
<path fill="#D5A453" opacity="1.000000" stroke="none" 
	d="
M126.967270,38.175453 
	C132.378693,31.651449 138.116974,32.237919 141.032425,39.200417 
	C142.719910,43.230381 140.076279,45.642467 137.505280,47.716770 
	C134.770477,49.923241 131.356628,49.354748 129.184616,47.073624 
	C127.147598,44.934284 124.108040,42.323330 126.967270,38.175453 
z"/>
<path fill="#D6A553" opacity="1.000000" stroke="none" 
	d="
M356.111084,26.989712 
	C351.302429,25.975555 348.687408,23.266645 349.097717,18.697203 
	C349.420837,15.098831 351.321411,12.324616 355.453644,12.001194 
	C360.244873,11.626195 363.493256,13.895188 363.993866,17.980633 
	C364.583649,22.794020 362.119659,25.762962 356.111084,26.989712 
z"/>
<path fill="#D6A552" opacity="1.000000" stroke="none" 
	d="
M18.744026,291.257599 
	C21.473532,298.089630 20.862219,300.802765 16.713381,303.082916 
	C13.105738,305.065674 9.834742,304.153259 7.459015,301.445465 
	C5.167613,298.833771 4.988009,295.167419 7.043242,292.347504 
	C8.942866,289.741058 11.758609,287.880432 15.403337,289.752411 
	C16.378410,290.253235 17.780172,289.712921 18.744026,291.257599 
z"/>
<path fill="#D6A553" opacity="1.000000" stroke="none" 
	d="
M475.772522,98.285240 
	C478.745667,102.046593 478.875031,106.967094 476.330688,109.163910 
	C473.546387,111.567924 468.411316,111.663803 465.882446,109.359032 
	C463.491638,107.180092 463.257599,101.551483 465.452667,99.023666 
	C468.804474,95.163818 471.501312,94.887993 475.772522,98.285240 
z"/>
<path fill="#D7A355" opacity="1.000000" stroke="none" 
	d="
M537.668701,259.247589 
	C541.040833,262.469666 540.095337,265.850708 537.278564,267.590698 
	C535.210876,268.867920 531.872620,268.904968 529.834717,265.528961 
	C528.572388,263.437683 529.200745,261.725159 530.217102,260.672577 
	C532.040833,258.783875 534.360229,256.842590 537.668701,259.247589 
z"/>
<path fill="#D5A451" opacity="1.000000" stroke="none" 
	d="
M461.172760,451.998871 
	C457.419769,451.390533 456.859100,449.052094 456.977875,446.150665 
	C457.064514,444.034851 458.227753,442.663849 459.999023,442.114502 
	C462.464996,441.349670 464.387848,442.528778 466.008148,444.478729 
	C467.103485,445.796875 467.472351,447.281403 466.664215,448.547241 
	C465.529541,450.324463 464.603607,452.831909 461.172760,451.998871 
z"/>
<path fill="#D6A552" opacity="1.000000" stroke="none" 
	d="
M477.988617,435.057495 
	C476.921539,438.666473 475.170532,440.937225 471.332489,439.922974 
	C469.230072,439.367340 468.064758,438.018677 467.961395,435.665863 
	C467.848938,433.104980 468.376648,430.756622 470.993011,430.138977 
	C474.583344,429.291412 476.882538,431.245667 477.988617,435.057495 
z"/>
<path fill="#D7A653" opacity="1.000000" stroke="none" 
	d="
M22.293400,223.699921 
	C26.490946,225.120605 25.404907,228.435760 24.562679,230.464081 
	C23.626753,232.718048 20.918404,233.651825 18.251205,232.668869 
	C15.567076,231.679688 14.421458,229.412842 15.153651,226.878876 
	C16.088810,223.642517 18.495457,222.217407 22.293400,223.699921 
z"/>
<path fill="#D5A353" opacity="1.000000" stroke="none" 
	d="
M383.635468,499.120056 
	C382.876251,496.885712 382.498871,494.857178 383.534088,493.052856 
	C384.786499,490.870087 387.009033,490.520172 389.192474,491.153320 
	C391.390961,491.790863 393.154755,493.566711 392.804047,495.808472 
	C392.441711,498.124634 391.344604,500.606567 388.335938,500.982605 
	C386.626099,501.196350 385.005768,501.032776 383.635468,499.120056 
z"/>
<path fill="#D5A451" opacity="1.000000" stroke="none" 
	d="
M487.801483,425.435120 
	C485.376526,428.403839 482.914215,429.177856 480.086365,426.616974 
	C477.546448,424.316711 477.654175,422.211243 479.689758,419.370728 
	C481.064392,417.452545 482.625275,417.822662 483.885651,418.164642 
	C485.577789,418.623749 487.910583,418.975067 487.983398,421.603333 
	C488.015198,422.751556 487.962708,423.902130 487.801483,425.435120 
z"/>
<path fill="#D6A453" opacity="1.000000" stroke="none" 
	d="
M244.693695,7.848383 
	C246.571564,5.344731 248.707672,4.226479 251.345428,5.258972 
	C253.608826,6.144925 254.016251,8.155247 254.083466,10.514706 
	C254.157913,13.128266 252.527664,14.011491 250.700317,14.657834 
	C247.122635,15.923273 244.036316,12.639852 244.693695,7.848383 
z"/>
<path fill="#D6A553" opacity="1.000000" stroke="none" 
	d="
M110.761566,36.729858 
	C113.708954,33.640469 116.480362,34.993683 118.305321,37.078796 
	C119.752518,38.732285 119.871429,41.635300 117.929688,43.364216 
	C116.065926,45.023689 113.459816,46.109764 111.268539,43.966312 
	C109.315331,42.055729 107.673447,39.662117 110.761566,36.729858 
z"/>
<path fill="#D6A553" opacity="1.000000" stroke="none" 
	d="
M480.188965,118.467979 
	C481.184021,117.605484 481.980743,117.043068 482.848755,116.630669 
	C485.912445,115.175049 488.168243,116.235634 489.556702,119.119888 
	C491.203827,122.541588 488.699524,124.686958 486.352814,125.756149 
	C483.453949,127.076904 481.537109,124.504333 480.206299,122.225471 
	C479.698914,121.356613 480.058716,119.981331 480.188965,118.467979 
z"/>
<path fill="#D6A452" opacity="1.000000" stroke="none" 
	d="
M405.028015,494.412720 
	C402.448761,494.746765 399.798706,496.153656 398.027802,493.866333 
	C396.424438,491.795471 396.125885,488.934021 397.837402,486.982391 
	C399.609131,484.962189 402.789124,485.397766 404.710358,486.525543 
	C406.710052,487.699524 407.955566,490.256378 406.029297,492.872131 
	C405.748199,493.253845 405.549438,493.696228 405.028015,494.412720 
z"/>
<path fill="#D6A553" opacity="1.000000" stroke="none" 
	d="
M472.076172,444.991943 
	C475.291565,443.200897 477.990295,443.440491 479.594391,446.332184 
	C480.751129,448.417328 480.247559,450.717285 478.092407,452.414368 
	C475.562958,454.406189 473.318207,453.838989 471.333130,451.781616 
	C469.154114,449.523346 469.209869,447.186554 472.076172,444.991943 
z"/>
<path fill="#D5A353" opacity="1.000000" stroke="none" 
	d="
M542.294556,284.283569 
	C540.688538,288.307556 537.837585,287.827454 535.007690,286.924713 
	C531.818359,285.907349 532.843994,283.057892 533.174866,281.068207 
	C533.558594,278.761078 535.550842,277.755951 538.034485,277.987579 
	C541.789185,278.337769 542.634888,280.772675 542.294556,284.283569 
z"/>
<path fill="#D6A453" opacity="1.000000" stroke="none" 
	d="
M68.997055,416.839325 
	C67.959076,421.349548 65.205704,421.809937 61.871185,420.359711 
	C58.519245,418.901825 59.589283,415.598541 60.462391,413.682861 
	C61.513824,411.375946 64.133919,410.575256 66.998695,411.929413 
	C69.182709,412.961761 69.011139,414.634949 68.997055,416.839325 
z"/>
<path fill="#D6A453" opacity="1.000000" stroke="none" 
	d="
M152.196442,37.995804 
	C147.463287,37.344067 148.804092,33.966171 149.283005,31.769405 
	C149.852081,29.159031 152.403885,28.596401 154.918030,29.061390 
	C158.234924,29.674849 158.084610,32.185806 158.022278,34.752914 
	C157.924286,38.788685 154.979538,37.842358 152.196442,37.995804 
z"/>
<path fill="#D7A653" opacity="1.000000" stroke="none" 
	d="
M208.287048,16.387413 
	C210.692932,14.408641 212.808487,14.032132 213.875275,17.113424 
	C214.427353,18.708055 214.041809,20.746902 211.890213,20.876366 
	C209.283600,21.033213 207.498718,19.816713 208.287048,16.387413 
z"/>
<path fill="#D5A353" opacity="1.000000" stroke="none" 
	d="
M530.833496,295.042969 
	C532.311218,296.009003 534.741577,296.091278 533.762451,298.390991 
	C533.208252,299.692566 532.156006,300.882751 530.472534,300.941803 
	C529.140869,300.988525 528.268250,300.216400 528.080139,298.992981 
	C527.790588,297.110168 527.980469,295.344299 530.833496,295.042969 
z"/>
<path fill="#D6A453" opacity="1.000000" stroke="none" 
	d="
M12.701247,276.824402 
	C16.007727,275.092468 17.426125,277.076965 17.852247,279.398743 
	C18.234531,281.481659 15.849224,281.982666 14.512367,281.865448 
	C11.445530,281.596527 11.749073,279.314362 12.701247,276.824402 
z"/>
<path fill="#D7A355" opacity="1.000000" stroke="none" 
	d="
M490.072571,132.070496 
	C491.856110,131.139740 493.889923,129.668976 494.895050,132.409424 
	C495.295593,133.501511 495.355652,135.028030 494.243805,136.124054 
	C493.459839,136.896820 492.451416,137.213577 491.547852,136.812347 
	C489.636536,135.963638 490.006439,134.127319 490.072571,132.070496 
z"/>
<path fill="#D6A553" opacity="1.000000" stroke="none" 
	d="
M57.069351,403.931458 
	C56.760792,400.528168 58.428463,399.642029 61.005272,400.094177 
	C62.507496,400.357727 63.449829,401.644623 62.869633,403.035004 
	C61.667259,405.916290 59.373547,405.342773 57.069351,403.931458 
z"/>
<path fill="#D7A653" opacity="1.000000" stroke="none" 
	d="
M232.710861,10.833238 
	C234.628876,9.690121 236.205063,9.585729 237.483643,11.084491 
	C238.173553,11.893218 238.184235,12.874179 237.567657,13.826463 
	C236.539200,15.414920 234.894958,15.161012 233.505295,14.930742 
	C230.799637,14.482400 232.196228,12.573381 232.710861,10.833238 
z"/>
<path fill="#D6A553" opacity="1.000000" stroke="none" 
	d="
M408.059204,479.169495 
	C409.874725,477.342133 411.541534,477.606049 412.668884,479.443054 
	C413.353088,480.557983 413.287292,481.977417 412.330933,483.132568 
	C411.604767,484.009644 410.568451,484.244965 409.646179,483.855835 
	C407.726654,483.045990 407.954437,481.246979 408.059204,479.169495 
z"/>
<path fill="#D7A355" opacity="1.000000" stroke="none" 
	d="
M52.007442,129.720428 
	C51.746117,126.575317 53.699554,127.078163 55.312115,127.000275 
	C57.109653,126.913452 56.970200,128.119766 57.008450,129.311783 
	C57.053116,130.703873 57.030266,131.920486 55.254444,132.305710 
	C53.332756,132.722549 52.213982,132.173386 52.007442,129.720428 
z"/>
<path fill="#D7A355" opacity="1.000000" stroke="none" 
	d="
M450.724030,449.803162 
	C453.461578,448.178162 455.266357,449.030640 455.738617,451.545227 
	C456.159149,453.784454 454.230438,453.952606 452.491638,454.010895 
	C449.027679,454.127014 449.859192,452.062317 450.724030,449.803162 
z"/>
<path fill="#D6A552" opacity="1.000000" stroke="none" 
	d="
M70.683685,427.856873 
	C73.330772,426.395203 75.321671,427.202179 75.840248,429.495178 
	C76.304695,431.548798 74.356544,431.955872 72.542305,432.020569 
	C69.154144,432.141418 69.848701,430.128174 70.683685,427.856873 
z"/>
<path fill="#D6A452" opacity="1.000000" stroke="none" 
	d="
M414.934540,489.180450 
	C414.199615,492.955780 411.593018,492.342773 409.587616,491.575867 
	C408.359344,491.106201 408.704437,489.082001 409.512360,488.116119 
	C411.484436,485.758484 413.206665,487.587128 414.934540,489.180450 
z"/>
<path fill="#D6A453" opacity="1.000000" stroke="none" 
	d="
M521.195679,200.038467 
	C523.462524,199.927582 524.968567,200.409439 524.924316,202.632294 
	C524.898926,203.903015 524.115417,204.794189 522.786865,204.944305 
	C521.639282,205.073944 520.418945,205.195740 519.618774,204.067963 
	C518.336060,202.260025 519.077820,201.010849 521.195679,200.038467 
z"/>
<path fill="#000000" opacity="1.000000" stroke="none" 
	d="
M49.001923,242.978165 
	C49.216141,229.830688 51.925022,217.523712 54.407433,205.179947 
	C57.532337,189.641418 62.980625,174.838821 69.101036,160.313522 
	C75.518585,145.083054 85.076988,131.809494 95.995880,119.440331 
	C104.691635,109.589615 114.143860,100.543671 124.300346,92.272743 
	C136.907608,82.006027 150.266800,72.852013 164.820129,65.417557 
	C171.925674,61.787727 179.118042,58.373562 186.450897,55.317932 
	C199.933960,49.699497 213.838348,45.287342 228.175034,42.331234 
	C238.094482,40.285923 248.070587,38.835182 258.167969,37.786083 
	C265.985626,36.973846 273.751160,36.876366 281.506744,37.105972 
	C294.428864,37.488537 307.145599,39.699196 319.829041,42.290535 
	C331.475708,44.670040 342.889954,48.007320 353.834930,52.266430 
	C373.987549,60.108566 393.141144,70.156967 410.609589,83.119698 
	C421.144257,90.937103 431.007141,99.544769 440.270782,108.814827 
	C454.942932,123.497231 467.309052,140.091644 477.283661,158.159439 
	C484.178802,170.649200 489.945984,183.811417 494.297668,197.642670 
	C498.407776,210.706223 502.029449,223.859802 503.732178,237.313141 
	C505.835480,253.931168 506.387115,270.656952 504.284637,287.526489 
	C502.581055,301.195282 499.892181,314.532440 496.040680,327.662598 
	C491.244171,344.014160 484.953705,359.723389 476.346436,374.569122 
	C471.440399,383.030945 466.730865,391.611359 460.931519,399.457581 
	C447.793335,417.232758 432.868469,433.336578 415.459106,447.108002 
	C395.467834,462.921783 373.546387,475.045258 349.716278,484.136353 
	C333.998505,490.132599 317.800232,493.993164 301.389282,496.766449 
	C288.727509,498.906158 275.738098,499.968933 262.847748,498.907562 
	C245.294708,497.462250 228.021255,494.348175 211.147339,489.023560 
	C191.434479,482.803192 172.973862,473.961761 155.658905,462.830292 
	C138.347733,451.701263 122.916550,438.114777 109.406525,422.683990 
	C90.213249,400.761871 75.146416,376.285492 64.736130,348.788452 
	C58.829357,333.186676 55.175129,317.125183 51.243202,301.088013 
	C49.580132,294.304810 49.572330,287.095032 49.037930,280.061981 
	C48.537224,273.472260 48.493763,266.846832 47.952671,260.261444 
	C47.485851,254.579956 49.166882,249.085571 49.001923,242.978165 
z"/>
<path fill="#000000" opacity="1.000000" stroke="none" 
	d="
M400.463379,63.207855 
	C391.765167,60.284725 384.435303,55.673573 376.390503,52.482849 
	C361.990723,46.771629 347.312012,42.304134 332.228638,39.008255 
	C321.643890,36.695377 310.878510,35.909023 300.115936,34.825863 
	C285.832520,33.388363 271.570343,33.885532 257.335266,34.169140 
	C241.795868,34.478741 226.374710,36.504848 211.168762,40.253342 
	C201.700089,42.587513 192.380692,45.315224 183.177475,48.431702 
	C173.075577,51.852493 163.420715,56.415768 153.406998,61.001579 
	C152.677902,61.141506 152.317627,61.238945 152.154938,60.812561 
	C158.058258,55.058041 165.152634,51.988712 171.751785,48.234406 
	C181.786041,42.525848 192.399353,37.889591 203.282837,33.986496 
	C213.759491,30.229298 224.433548,27.109333 235.388565,25.039494 
	C248.957031,22.475866 262.614471,20.558277 276.454193,21.046801 
	C293.493103,21.648254 310.252106,24.425364 326.724640,28.746920 
	C345.088531,33.564690 362.730591,40.144230 379.377502,49.523823 
	C386.408325,53.485294 393.432068,57.413017 400.449402,62.041374 
	C400.790039,62.643097 400.890564,62.991478 400.463379,63.207855 
z"/>
<path fill="#000000" opacity="1.000000" stroke="none" 
	d="
M388.832794,478.360535 
	C399.304535,471.239777 410.423798,465.721130 420.319092,458.273071 
	C432.593445,449.034393 444.036133,438.861359 454.704437,427.781342 
	C462.578186,419.603699 469.571472,410.694672 475.908691,401.383484 
	C486.051422,386.480927 494.780273,370.800751 501.286987,353.805939 
	C506.539673,340.086517 510.991638,326.267761 513.419373,311.813995 
	C515.017395,302.300018 516.891296,292.862579 517.184998,283.106384 
	C517.437439,274.716919 517.072144,266.375366 517.066650,258.012329 
	C517.057617,244.145142 514.350525,230.676071 511.563232,217.224625 
	C507.778076,198.957367 501.150360,181.610153 492.875580,164.977448 
	C488.096558,155.371353 482.049530,146.398422 476.638092,137.102722 
	C475.525024,135.190674 474.700409,133.110687 474.211243,130.837006 
	C479.939575,135.830200 483.715820,142.302078 487.679688,148.485931 
	C497.941711,164.495316 505.972290,181.611115 511.991699,199.702225 
	C516.622253,213.619324 520.118958,227.861145 521.718628,242.320450 
	C523.514587,258.554504 523.524292,274.930695 522.234924,291.360077 
	C521.088196,305.970520 518.135376,320.024231 514.079956,333.987854 
	C509.583191,349.471222 503.507019,364.295013 495.822723,378.445709 
	C483.828339,400.533447 468.606232,420.132416 450.242401,437.320709 
	C435.947540,450.700531 420.261414,462.140961 403.348328,471.967651 
	C399.127533,474.419983 394.830505,476.635010 389.953064,478.518280 
	C389.354950,478.758331 389.052765,478.783051 388.832794,478.360535 
z"/>
<path fill="#000000" opacity="1.000000" stroke="none" 
	d="
M79.719185,399.205475 
	C71.274109,386.178680 63.804317,373.035461 57.583305,359.168091 
	C53.253548,349.516541 50.244884,339.446472 46.971466,329.438629 
	C42.742352,316.509003 40.605663,303.030121 39.423046,289.713867 
	C38.038918,274.128571 37.427769,258.282623 40.545055,242.559128 
	C42.250053,233.959167 42.583576,225.042557 45.065300,216.581131 
	C48.348602,205.386749 51.329372,194.076675 55.980625,183.320038 
	C56.411934,182.322571 56.750778,181.373932 58.039803,180.377579 
	C41.709515,233.255692 40.974705,285.718994 57.955883,338.155029 
	C74.831963,390.266479 105.912224,431.902313 150.627563,463.563812 
	C145.255051,463.338898 141.807175,459.699799 137.914322,456.987610 
	C120.189743,444.638916 104.272308,430.322449 90.834587,413.343811 
	C87.189507,408.738251 83.595367,404.092346 79.719185,399.205475 
z"/>
<path fill="#000000" opacity="1.000000" stroke="none" 
	d="
M94.235718,110.599319 
	C88.838966,118.797707 83.785789,126.659996 78.244568,134.161819 
	C67.446312,148.780685 59.146637,164.736969 52.256477,181.466537 
	C46.263084,196.018768 41.920841,211.136551 39.312176,226.602585 
	C36.848972,241.206223 35.802197,255.974838 35.820728,270.893280 
	C35.851166,295.390320 39.818298,319.142487 47.202671,342.338196 
	C51.717590,356.520386 57.716839,370.164124 65.037643,383.562103 
	C65.165894,384.285522 65.251717,384.644043 64.812622,384.828613 
	C53.991386,369.347321 46.828823,352.562073 41.082314,335.131653 
	C36.235176,320.429230 32.560528,305.473846 30.895891,290.015137 
	C30.103563,282.657166 29.218206,275.302216 29.066164,267.924103 
	C28.631117,246.812668 31.692070,226.131104 37.596245,205.875717 
	C43.951759,184.071945 53.156105,163.572708 65.820175,144.665405 
	C73.895966,132.608353 82.420967,120.919205 93.101395,110.518921 
	C93.685547,110.228401 94.022141,110.164368 94.235718,110.599319 
z"/>
<path fill="#000000" opacity="1.000000" stroke="none" 
	d="
M510.012360,314.035980 
	C494.560303,385.292999 453.719055,436.872528 391.091003,473.061829 
	C390.552368,470.135834 391.688354,469.989655 392.810608,469.982697 
	C394.124298,469.974548 393.919128,468.559143 394.789215,468.063995 
	C409.964142,459.427979 423.447357,448.629333 436.068909,436.578064 
	C446.160522,426.942383 455.613739,416.743713 463.765778,405.507538 
	C471.284180,395.144684 478.151276,384.315033 483.915710,372.746857 
	C489.504120,361.531921 494.151398,350.026581 498.002838,338.166046 
	C502.636230,323.897461 505.922058,309.370544 507.112335,294.327515 
	C508.090637,281.963501 509.668976,269.591034 508.864075,257.224915 
	C507.886261,242.202148 507.314728,227.137573 504.335968,212.238190 
	C502.974609,205.428833 500.007507,198.900970 499.986816,191.327637 
	C502.180450,193.559341 502.449066,196.020813 503.247406,198.403076 
	C507.022919,209.669266 510.291931,221.116302 511.693634,232.854706 
	C512.545654,239.990250 514.093811,247.044266 514.253113,254.359283 
	C514.403625,261.271149 515.265686,268.234131 514.931458,275.163849 
	C514.308044,288.089142 512.794250,300.931763 510.012360,314.035980 
z"/>
<path fill="#000000" opacity="1.000000" stroke="none" 
	d="
M44.531124,174.718842 
	C53.201099,153.610962 63.758347,133.815445 77.608528,115.762451 
	C87.155334,103.318665 97.699265,91.824631 109.297623,81.412247 
	C122.332481,69.710251 136.599716,59.489876 152.004379,51.044277 
	C166.366821,43.170097 181.402390,36.812000 198.117371,31.528023 
	C195.894485,33.889816 193.997589,34.342499 192.166077,35.065960 
	C177.738937,40.764820 164.487656,48.593208 151.408981,56.898487 
	C135.770386,66.829369 123.059708,80.184753 108.805595,91.718704 
	C94.042450,103.664536 81.219055,117.571457 69.968552,132.757034 
	C60.956150,144.921692 53.455700,158.153900 47.001419,171.913345 
	C46.530029,172.918274 45.837070,173.819260 44.887756,174.649460 
	C44.528385,174.530350 44.507629,174.903107 44.531124,174.718842 
z"/>
<path fill="#000000" opacity="1.000000" stroke="none" 
	d="
M479.267151,150.701828 
	C481.642670,155.836960 484.784760,160.244293 485.572479,165.733109 
	C475.479187,144.909103 461.693756,126.636749 447.090790,108.899292 
	C460.801514,120.424927 471.342346,134.328140 479.267151,150.701828 
z"/>
<path fill="#000000" opacity="1.000000" stroke="none" 
	d="
M366.250977,487.804993 
	C365.314789,490.769592 362.036530,490.600952 359.595917,491.627350 
	C356.863525,492.776520 353.828888,493.206940 350.618073,493.046204 
	C355.718048,491.358307 360.818054,489.670380 366.250977,487.804993 
z"/>
<path fill="#000000" opacity="1.000000" stroke="none" 
	d="
M382.161926,481.633789 
	C377.373932,484.488312 372.794586,487.209442 366.996521,487.763672 
	C366.583954,487.627533 366.612610,487.652374 366.603149,487.645782 
	C371.317169,485.673523 376.040680,483.707825 381.056610,481.513580 
	C381.648499,481.253448 381.947998,481.221832 382.161926,481.633789 
z"/>
<path fill="#000000" opacity="1.000000" stroke="none" 
	d="
M435.032410,95.572021 
	C436.747925,97.411415 438.605316,98.585640 439.625153,100.864365 
	C435.064606,101.045097 434.734497,96.492722 432.253265,94.415161 
	C433.085480,94.702293 433.917725,94.989433 435.032410,95.572021 
z"/>
<path fill="#000000" opacity="1.000000" stroke="none" 
	d="
M389.472839,478.527344 
	C387.651611,480.397461 385.420959,481.591309 382.447571,482.043457 
	C381.954407,481.946014 381.832458,481.814636 381.529724,481.484131 
	C383.238770,479.376221 386.042389,479.368378 388.552551,477.954712 
	C389.039490,478.049225 389.164032,478.185150 389.472839,478.527344 
z"/>
<path fill="#000000" opacity="1.000000" stroke="none" 
	d="
M439.998260,102.603546 
	C443.167877,101.975807 443.894470,104.841759 445.887421,106.771179 
	C442.453918,107.255119 441.415924,104.886955 439.998260,102.603546 
z"/>
<path fill="#000000" opacity="1.000000" stroke="none" 
	d="
M383.175812,475.820801 
	C385.244171,473.466980 387.633881,472.673676 391.110321,471.491669 
	C389.256531,474.671143 386.694641,474.853180 384.446167,476.036560 
	C383.722107,476.166962 383.370819,476.253845 383.175812,475.820801 
z"/>
<path fill="#000000" opacity="1.000000" stroke="none" 
	d="
M160.440216,470.212006 
	C157.406204,469.555786 155.300079,468.331757 152.456207,466.049072 
	C156.270447,466.051453 158.157730,467.655762 160.458862,469.067444 
	C160.780563,469.670929 160.862701,470.009491 160.440216,470.212006 
z"/>
<path fill="#000000" opacity="1.000000" stroke="none" 
	d="
M168.608246,475.228088 
	C166.870514,474.409637 165.297806,474.005615 164.070374,472.317993 
	C166.770111,472.190521 168.445587,473.801453 170.298111,474.904846 
	C170.713150,475.152008 170.822876,475.738281 170.181885,475.851410 
	C169.798660,475.919037 169.341705,475.568756 168.608246,475.228088 
z"/>
<path fill="#000000" opacity="1.000000" stroke="none" 
	d="
M472.922455,127.439240 
	C473.975677,128.588562 474.726990,130.132172 473.554260,130.384247 
	C472.457733,130.619949 470.993439,129.171997 471.024689,127.491631 
	C471.063629,125.401764 472.012970,126.791466 472.922455,127.439240 
z"/>
<path fill="#000000" opacity="1.000000" stroke="none" 
	d="
M148.422485,62.879341 
	C148.955795,62.669334 149.113770,62.496059 149.237808,62.517654 
	C149.485764,62.560833 149.928650,62.786858 149.921875,62.805851 
	C149.159164,64.946533 146.823807,64.531273 145.053192,66.216141 
	C145.150589,63.579773 147.221161,63.940266 148.422485,62.879341 
z"/>
<path fill="#000000" opacity="1.000000" stroke="none" 
	d="
M122.297241,84.917206 
	C122.866692,84.704208 123.008606,84.532928 123.139091,84.541237 
	C123.379562,84.556564 123.613319,84.677368 123.849869,84.754211 
	C122.816139,86.105843 122.100815,87.871101 119.473923,88.009033 
	C119.929756,86.393158 120.708099,85.583054 122.297241,84.917206 
z"/>
<path fill="#000000" opacity="1.000000" stroke="none" 
	d="
M44.544128,174.547760 
	C45.721497,176.424774 44.558769,177.894028 43.604149,179.442459 
	C41.933620,177.724930 44.381195,176.645157 44.407257,174.863556 
	C44.554619,174.534592 44.559868,174.565155 44.544128,174.547760 
z"/>
<path fill="#000000" opacity="1.000000" stroke="none" 
	d="
M379.491577,478.094360 
	C379.731415,476.369629 381.503235,476.401520 383.064148,475.513489 
	C383.456329,475.430237 383.580505,475.559509 383.889038,475.884491 
	C382.902313,477.295898 381.507568,478.018860 379.491577,478.094360 
z"/>
<path fill="#000000" opacity="1.000000" stroke="none" 
	d="
M379.097900,478.066040 
	C378.408325,479.426880 377.493927,480.330353 375.722015,479.798767 
	C376.413422,478.716156 377.247406,478.057343 378.835693,478.092010 
	C379.195465,478.163422 379.127411,478.101410 379.097900,478.066040 
z"/>
<path fill="#000000" opacity="1.000000" stroke="none" 
	d="
M130.523102,80.148338 
	C129.998276,80.351929 129.858063,80.437668 129.705841,80.483368 
	C129.585800,80.519402 129.343628,80.533455 129.337906,80.510948 
	C128.745712,78.182159 131.263046,79.160347 131.933060,78.138863 
	C131.957764,78.101196 132.958755,78.310211 132.402618,78.929924 
	C132.000046,79.378494 131.409348,79.658203 130.523102,80.148338 
z"/>
<path fill="#000000" opacity="1.000000" stroke="none" 
	d="
M400.500275,62.489128 
	C401.717590,63.030972 403.283356,63.048954 403.717285,64.616249 
	C402.236542,65.546555 401.477722,63.650513 400.082825,63.377899 
	C400.060791,62.945076 400.185852,62.814320 400.500275,62.489128 
z"/>
<path fill="#000000" opacity="1.000000" stroke="none" 
	d="
M311.051056,502.734375 
	C309.750793,502.838440 308.594421,503.456543 307.637115,502.374908 
	C308.936676,501.900970 310.145966,501.635437 311.051056,502.734375 
z"/>
<path fill="#000000" opacity="1.000000" stroke="none" 
	d="
M69.631378,391.838379 
	C70.719139,393.021667 71.360054,394.121246 72.112526,395.484924 
	C70.343277,395.889313 70.185593,394.397980 69.539230,392.904419 
	C69.269287,392.354858 69.226913,392.054749 69.631378,391.838379 
z"/>
<path fill="#000000" opacity="1.000000" stroke="none" 
	d="
M151.267090,465.549561 
	C150.273026,463.814697 151.428192,463.957214 152.057098,464.150482 
	C152.552460,464.302704 152.882004,464.994476 153.285187,465.446594 
	C152.719208,465.586487 152.153244,465.726379 151.267090,465.549561 
z"/>
<path fill="#000000" opacity="1.000000" stroke="none" 
	d="
M425.796173,88.530693 
	C426.825043,89.060936 427.880280,88.982521 427.845612,90.079002 
	C427.831177,90.536919 427.355896,90.896538 426.920502,90.372070 
	C426.383942,89.725700 424.088135,90.320343 425.796173,88.530693 
z"/>
<path fill="#000000" opacity="1.000000" stroke="none" 
	d="
M127.961945,81.235168 
	C128.065414,82.428062 127.537888,83.158272 126.316238,82.809517 
	C126.102951,82.748634 125.768639,82.439354 125.796753,82.313004 
	C125.999115,81.403618 126.624191,81.004562 127.961945,81.235168 
z"/>
<path fill="#000000" opacity="1.000000" stroke="none" 
	d="
M66.165085,386.190399 
	C67.617416,387.038208 68.644714,388.142822 67.743813,389.060089 
	C66.814857,390.005981 66.324188,388.696228 65.959625,387.468506 
	C65.825256,386.738983 65.739258,386.396515 66.165085,386.190399 
z"/>
<path fill="#000000" opacity="1.000000" stroke="none" 
	d="
M69.504211,392.472687 
	C68.368088,391.951477 67.364632,390.851166 68.270622,389.941986 
	C69.192871,389.016357 69.686218,390.301239 70.031937,391.536011 
	C69.951057,392.044891 69.823906,392.167664 69.504211,392.472687 
z"/>
<path fill="#000000" opacity="1.000000" stroke="none" 
	d="
M73.827766,398.820740 
	C72.611984,398.091797 71.841057,397.545166 72.136185,396.097107 
	C72.224083,395.749054 72.152023,395.827789 72.120377,395.860596 
	C72.919754,396.067535 74.001480,395.886292 74.040703,397.583130 
	C74.169243,398.270905 74.256500,398.616882 73.827766,398.820740 
z"/>
<path fill="#000000" opacity="1.000000" stroke="none" 
	d="
M64.879425,384.106140 
	C66.111351,384.184296 65.843941,385.242645 66.477249,386.097656 
	C66.551674,386.454956 66.426468,386.583191 66.106239,386.896423 
	C64.906883,386.821594 65.087952,385.779968 64.463684,384.903992 
	C64.418053,384.531494 64.548424,384.408386 64.879425,384.106140 
z"/>
<path fill="#000000" opacity="1.000000" stroke="none" 
	d="
M152.868088,60.854057 
	C152.231842,62.015541 151.090088,62.930832 150.079849,61.988228 
	C149.602768,61.543083 151.061188,61.080143 152.050507,60.527405 
	C152.467682,60.413845 152.582825,60.538940 152.868088,60.854057 
z"/>
<path fill="#000000" opacity="1.000000" stroke="none" 
	d="
M423.596100,87.394470 
	C424.440613,87.220909 425.327850,87.350357 424.763641,88.164795 
	C424.196533,88.983459 423.825378,87.895027 423.596100,87.394470 
z"/>
<path fill="#000000" opacity="1.000000" stroke="none" 
	d="
M117.825928,89.799728 
	C117.671257,90.664658 117.166527,91.327095 116.673508,90.538620 
	C116.151695,89.704117 117.267715,89.801331 117.825928,89.799728 
z"/>
<path fill="#000000" opacity="1.000000" stroke="none" 
	d="
M430.836273,93.145416 
	C430.264252,93.221878 429.217651,93.334984 429.672058,92.485382 
	C430.120575,91.646751 430.622925,92.313095 430.836273,93.145416 
z"/>
<path fill="#000000" opacity="1.000000" stroke="none" 
	d="
M93.538414,110.495331 
	C93.797012,109.973389 93.974968,109.019638 94.750381,109.548065 
	C94.930061,109.670502 94.691208,110.407112 94.378830,110.979721 
	C93.984436,110.964951 93.856155,110.831573 93.538414,110.495331 
z"/>
<path fill="#000000" opacity="1.000000" stroke="none" 
	d="
M160.506348,469.516754 
	C161.017441,469.788116 161.970673,469.960358 161.467880,470.745178 
	C161.360123,470.913391 160.612518,470.671631 160.047668,470.347321 
	C160.061829,469.951019 160.188019,469.826080 160.506348,469.516754 
z"/>
<path fill="#000000" opacity="1.000000" stroke="none" 
	d="
M73.888092,398.112000 
	C74.892868,398.259583 75.226326,398.791901 74.672447,399.576935 
	C74.636292,399.628174 74.031929,399.278503 73.501831,398.897003 
	C73.439255,398.552155 73.566727,398.425629 73.888092,398.112000 
z"/>
<path fill="#D6A553" opacity="1.000000" stroke="none" 
	d="
M316.630493,188.628143 
	C320.709229,189.204437 324.645599,188.969147 328.766876,188.221985 
	C337.528442,186.633575 346.424469,185.786911 355.458740,185.162277 
	C349.622223,192.104858 343.195282,198.166733 335.793762,202.891205 
	C331.135406,205.864685 325.911377,203.950180 321.276398,201.626572 
	C317.504913,199.735855 313.406799,199.309174 309.422729,198.174591 
	C312.296997,201.250793 316.234375,202.613052 319.107422,205.592911 
	C325.079163,211.786697 325.927216,217.634308 320.985260,224.808334 
	C317.464386,229.919510 313.562103,234.769440 309.776459,239.694763 
	C309.317230,240.292252 308.754242,241.067688 307.236969,240.679413 
	C308.110962,236.021988 307.820374,231.213547 308.066071,226.437027 
	C308.486298,218.268875 306.012360,211.058990 301.795868,204.260147 
	C301.133850,203.192734 300.738525,201.959900 299.954163,200.562576 
	C299.319214,200.572113 298.911591,200.654388 298.695862,200.836685 
	C302.213043,209.496109 306.063293,217.741074 305.076935,227.232178 
	C304.731537,230.555740 304.612854,233.743011 302.213715,236.373642 
	C299.984528,238.817871 300.942139,240.998337 302.749664,243.286758 
	C308.765228,250.902878 316.041779,257.005219 324.462891,261.767242 
	C325.584778,262.401642 327.281128,262.729309 326.702240,264.370392 
	C326.252838,265.644226 324.673706,264.957825 323.618011,264.967285 
	C319.185760,265.007080 314.779755,265.063324 310.370331,264.067993 
	C307.571045,263.436127 306.468781,260.941895 303.991821,259.540466 
	C302.779022,260.052490 302.641418,259.283661 302.263489,258.400696 
	C301.939331,257.942596 301.787567,257.734406 301.641602,257.521973 
	C301.645416,257.559387 301.665253,257.578094 301.842316,257.776154 
	C302.336700,258.430389 302.505768,258.960724 302.774658,259.784851 
	C304.814514,264.912109 309.376343,267.826294 312.116089,272.215363 
	C300.641083,274.861877 296.721283,270.432220 290.838928,248.602631 
	C284.721497,252.521820 283.474091,265.769409 288.680206,271.940979 
	C295.044250,279.485199 301.993713,286.364532 310.884094,290.956238 
	C311.941833,291.502594 313.201721,291.959717 312.675323,293.366669 
	C312.250916,294.501068 310.944580,293.918762 310.031738,293.983673 
	C302.075104,294.549622 294.491241,293.990753 288.971558,286.561707 
	C288.624359,286.477386 288.521271,286.617157 288.165649,286.918335 
	C289.858612,290.979370 292.256470,294.528534 295.933136,297.523102 
	C296.607697,298.888245 296.716461,299.993530 296.245514,301.485962 
	C286.361420,303.397614 279.831909,292.877228 278.974182,282.499207 
	C278.334229,281.322662 279.054382,280.336761 278.353790,279.275635 
	C278.118195,276.626434 278.070740,274.253326 278.093750,271.440430 
	C278.498901,270.664520 278.896179,270.448914 279.709045,270.429352 
	C281.800415,271.452393 281.196808,273.585724 282.215759,274.909058 
	C281.390472,273.110748 281.187164,271.070984 280.060333,268.740173 
	C280.085907,265.303192 279.404053,262.473999 281.029541,259.476715 
	C281.363861,258.856354 281.436066,258.690338 281.299347,258.569275 
	C281.190216,258.472626 281.070374,258.423157 280.651062,258.365417 
	C279.156769,259.410370 277.992004,260.674927 276.094330,259.543243 
	C287.635071,238.201416 291.433990,216.843918 291.769928,199.947220 
	C285.305786,217.097366 281.970154,234.377518 275.140930,252.304642 
	C269.350464,233.571045 263.982819,216.205475 258.615204,198.839890 
	C258.959351,220.292892 263.827545,240.609482 274.292633,259.565308 
	C271.544312,260.291382 271.168304,257.739777 268.939880,257.446960 
	C270.869080,263.243134 270.057922,268.799225 267.572784,274.849548 
	C270.605072,272.873474 269.558868,269.418060 272.354401,267.774780 
	C274.138306,273.625854 272.091492,279.019226 271.856934,284.821777 
	C269.541748,287.269836 269.724792,290.414551 268.566223,292.988068 
	C265.392365,300.038177 260.801208,302.509308 251.681168,301.620728 
	C255.025482,296.463318 260.462494,293.022003 262.139313,286.982849 
	C261.622925,286.852509 261.201721,286.679413 261.160309,286.745239 
	C255.956451,295.018036 247.691528,294.190552 239.650558,293.975464 
	C238.765366,293.951782 237.425507,294.452545 237.206024,293.074646 
	C237.039902,292.031799 237.962479,291.456696 238.906921,290.962830 
	C243.259644,288.686676 247.007248,285.512390 251.018188,282.751770 
	C256.673370,278.859436 260.005951,273.254364 263.819427,268.036011 
	C265.946045,265.125977 265.372528,261.291656 264.262604,257.643280 
	C263.522247,255.209824 261.586548,253.188797 261.892822,250.232864 
	C257.359985,260.475769 257.123199,274.579041 239.699982,272.747375 
	C242.538422,267.860840 247.678268,265.057251 249.451233,258.371490 
	C242.257401,265.780518 234.314163,265.295685 225.771149,264.787109 
	C227.782394,260.238342 232.292053,259.553406 235.242004,257.026031 
	C240.111542,252.854065 245.369888,249.158264 248.916550,243.629547 
	C250.281265,241.502151 250.966629,240.345551 248.673752,237.723206 
	C244.922836,233.433289 244.275009,227.479752 245.125214,221.889526 
	C245.900070,216.794632 246.902313,211.651154 249.035217,206.456238 
	C249.362854,205.465286 249.699112,206.307922 249.344406,205.749496 
	C249.065689,205.310669 248.722351,205.637756 248.372070,205.566345 
	C243.793732,210.644638 242.708633,217.263458 242.123276,223.851776 
	C241.750015,228.052933 241.400528,232.411713 242.899658,236.636963 
	C243.324539,237.834457 243.356354,239.494446 242.295166,241.179337 
	C236.385910,234.779205 231.034027,228.277023 226.856003,221.061462 
	C224.736176,217.400482 224.937103,212.595383 228.390961,209.167679 
	C231.867462,205.717484 234.763718,201.565781 240.408905,199.344879 
	C235.675369,198.546677 232.074341,200.145691 229.305389,201.615997 
	C220.812531,206.125671 213.754761,204.345154 207.615326,198.001160 
	C203.390350,193.635406 198.479492,190.122375 193.284851,185.112061 
	C208.913757,185.668945 223.296158,189.560516 238.047211,189.412079 
	C227.079483,187.609589 216.133972,185.655121 205.137512,184.049377 
	C195.089279,182.582123 187.899292,177.872757 183.547516,168.329544 
	C180.275635,161.154419 175.833939,154.512741 171.892242,147.597198 
	C174.959930,145.905350 176.607422,149.612122 179.896652,148.594910 
	C172.179123,143.158218 167.317978,136.205383 164.913239,127.527512 
	C162.674896,119.450081 158.480042,111.870003 158.663589,103.087097 
	C165.142761,111.182274 171.912048,118.790100 179.294891,125.901833 
	C189.148422,135.393539 200.613754,142.363297 212.303665,149.299057 
	C223.492950,155.937759 234.965469,162.184494 245.713379,169.515335 
	C251.820755,173.680984 254.882416,180.493683 256.931976,187.501694 
	C257.786560,190.423737 258.670105,190.973526 261.409790,189.312531 
	C266.544922,186.199249 268.836456,177.818939 265.676636,173.065475 
	C264.396942,171.140396 262.926910,170.056946 260.576385,169.950027 
	C259.414368,169.897171 257.652954,170.825150 257.167450,169.012360 
	C256.769501,167.526276 257.583618,165.793961 258.771393,165.157135 
	C263.287567,162.735840 268.056732,160.113235 273.155426,160.208969 
	C278.418488,160.307800 283.434845,162.478806 286.661987,167.181458 
	C288.678680,170.120239 289.141327,173.540695 288.987518,177.028076 
	C288.802246,181.228973 289.428070,185.170074 292.237671,188.733963 
	C295.052948,185.720779 295.380432,181.734482 297.014496,178.372696 
	C301.233429,169.693008 309.706787,166.487015 317.171692,161.946686 
	C337.505646,149.579071 359.077362,138.964569 375.860779,121.512222 
	C380.911987,116.259659 385.888885,110.835655 389.773376,104.579117 
	C390.277710,103.766891 390.381256,102.519211 391.768646,103.397514 
	C392.484436,103.850639 393.219971,104.551476 392.843597,105.433556 
	C387.482635,117.998077 387.243713,132.806351 376.478394,142.996338 
	C374.340332,145.020126 372.024902,146.856522 369.566101,149.026138 
	C369.972748,151.135803 368.330414,150.197235 367.440308,150.741379 
	C363.232697,154.004425 358.644440,155.944458 355.124908,158.185379 
	C358.467560,156.280136 362.499481,154.044907 366.650391,151.347076 
	C367.609894,150.320724 368.597626,150.575348 369.775391,150.251068 
	C371.940979,149.881134 373.459534,148.969498 374.799286,147.724167 
	C375.617798,146.963348 376.634155,146.673035 377.479523,147.312195 
	C378.705872,148.239441 377.409576,149.053528 377.014923,149.797821 
	C374.438416,154.656677 371.950958,159.573975 369.115601,164.280136 
	C367.367523,167.181671 365.677155,170.055450 364.231018,173.141953 
	C360.722015,180.631271 353.548187,182.634903 346.286163,183.894028 
	C336.696045,185.556824 327.026306,186.760208 317.075012,188.424408 
	C316.759216,188.687714 316.614655,188.708069 316.630493,188.628143 
z"/>
<path fill="#D6A453" opacity="1.000000" stroke="none" 
	d="
M389.998474,347.958191 
	C391.258331,343.415680 390.743591,339.090088 391.846405,334.919525 
	C393.289032,329.463654 388.179382,321.190613 382.553802,319.015717 
	C381.068390,318.441437 379.546326,317.961945 377.880188,317.383026 
	C384.404022,313.695984 390.640991,314.522705 395.725861,319.164612 
	C400.817200,323.812439 403.919128,329.749847 406.815369,335.768677 
	C408.495026,339.259308 410.967773,342.242828 412.064209,347.192078 
	C417.987061,337.235687 423.174591,328.515381 429.147552,318.474762 
	C431.331085,327.040192 432.929565,334.182556 434.037354,341.466675 
	C434.891510,347.083038 435.431305,352.873535 437.280518,358.178925 
	C439.387634,364.224152 442.189789,370.534210 451.400604,368.865997 
	C447.057587,373.342621 438.040558,372.663483 433.072540,368.657440 
	C427.952820,364.529083 426.155090,358.691345 425.236908,352.803711 
	C424.591400,348.664490 423.222198,344.764374 422.628906,339.802734 
	C418.591705,348.004639 413.030579,354.446564 410.304321,363.262909 
	C404.828064,355.235687 401.896027,346.287842 396.559418,338.750671 
	C394.332642,343.533478 395.514252,348.863068 394.134216,353.831055 
	C393.518066,356.049133 392.918091,359.259949 398.364349,359.593231 
	C393.374207,362.029846 389.361389,360.237427 385.421234,361.357025 
	C388.047729,367.961334 393.606110,369.925232 400.410919,370.500824 
	C392.100220,376.410828 378.498718,371.345123 373.949951,362.596741 
	C372.381989,359.581085 370.818573,356.562805 369.283539,353.530334 
	C367.666138,350.335052 362.424835,348.604034 357.569153,350.085968 
	C354.339325,351.071716 354.142548,354.475616 353.086731,357.067963 
	C352.101227,359.487640 355.852448,358.437042 355.745880,360.504669 
	C353.486420,361.682831 350.936584,360.451508 348.207184,361.405914 
	C352.624481,366.794678 358.656982,368.280487 365.427246,369.426025 
	C362.416931,372.567444 358.859772,372.883514 355.461731,372.940643 
	C343.653320,373.139099 336.714966,365.843262 330.940277,356.717102 
	C327.826019,351.795380 324.358093,347.097473 320.870544,342.038757 
	C318.484070,350.920166 319.654724,357.527588 324.592407,360.549316 
	C317.660004,360.549316 311.459656,360.549316 305.259308,360.549316 
	C309.802185,359.264099 309.014709,355.700348 309.014893,352.522064 
	C309.015381,345.025146 308.996613,337.528198 309.022980,330.031372 
	C309.035767,326.397949 309.988007,322.403595 304.787933,320.666870 
	C315.024780,320.310028 324.981567,318.635132 334.680023,322.048096 
	C337.862122,323.167908 339.771667,325.753845 339.939514,329.116302 
	C340.157990,333.492889 340.867401,338.195099 336.079437,340.998474 
	C334.829651,341.730225 333.527802,342.373138 331.730865,343.334564 
	C337.265869,347.996948 341.101837,353.628326 345.636841,359.336792 
	C350.066986,353.197296 351.687439,346.109070 354.950409,339.841736 
	C355.925079,337.969696 356.576050,335.931702 357.498871,334.029633 
	C360.741180,327.346924 360.680481,326.899048 355.335144,321.889893 
	C352.956970,319.661255 352.956970,319.661255 348.416168,320.641907 
	C351.656738,315.608307 359.676666,315.506165 365.052185,320.567688 
	C369.061340,324.342682 371.132721,329.291931 373.091858,334.330841 
	C375.979736,341.758698 379.052490,349.115875 382.141205,356.463379 
	C382.746674,357.903564 383.469543,359.563904 385.691864,358.981079 
	C387.465759,358.515808 388.611877,357.413727 388.939911,355.663330 
	C389.389801,353.262848 389.654388,350.827637 389.998474,347.958191 
z"/>
<path fill="#D6A553" opacity="1.000000" stroke="none" 
	d="
M290.008118,339.003784 
	C290.008118,343.832733 290.004425,348.162628 290.009338,352.492493 
	C290.012939,355.662231 289.127136,359.270111 293.767944,360.596680 
	C287.966858,360.596680 282.165771,360.596680 275.020203,360.596680 
	C281.169403,357.167816 279.972595,352.072418 279.992615,347.329285 
	C280.020752,340.668060 279.891479,334.004028 280.052612,327.346588 
	C280.115112,324.762268 279.393066,323.662384 276.710114,323.964783 
	C275.065704,324.150116 273.383270,323.993073 271.717957,323.999084 
	C264.343323,324.025726 262.906250,325.610291 263.682007,333.190094 
	C263.779114,334.139038 264.022644,334.781769 262.900360,334.933044 
	C262.075043,335.044281 261.430359,334.906525 260.949310,333.917786 
	C259.868622,331.696655 258.264252,329.519501 259.106720,326.983734 
	C259.875061,324.671082 259.034821,323.693054 257.045563,324.094818 
	C254.678650,324.572784 250.432663,321.893951 250.191666,326.093536 
	C249.629715,335.886475 249.958649,345.734589 250.060867,355.558960 
	C250.088196,358.185883 253.043762,358.654022 255.016159,360.543701 
	C248.258942,360.543701 242.220978,360.543701 236.182999,360.543701 
	C240.651871,358.666992 241.161926,355.272430 241.058472,351.196136 
	C240.855713,343.207642 240.941147,335.209717 241.034592,327.217194 
	C241.060303,325.018188 240.682922,323.781616 238.080719,323.954559 
	C235.096207,324.152954 232.075607,323.826660 229.093903,324.045166 
	C224.361130,324.392059 221.934067,328.162842 223.752686,332.152710 
	C224.116486,332.950928 225.417694,333.489410 224.023911,334.446808 
	C222.640610,335.396973 221.884430,334.364502 221.194382,333.462189 
	C218.338654,329.727997 220.426010,322.981293 225.036865,321.064392 
	C226.083252,320.629395 227.198273,320.164703 228.304657,320.098785 
	C239.868271,319.409729 251.507156,319.497314 263.026184,319.585327 
	C275.966125,319.684143 288.925934,319.720917 301.878265,319.687866 
	C302.132050,319.687225 302.385529,319.592590 302.881714,319.493225 
	C302.837158,323.032410 303.597473,326.527313 301.919373,330.043396 
	C301.270782,327.131073 300.131348,324.849304 297.091614,324.083130 
	C291.660095,322.714111 290.012909,323.952637 290.008514,329.511780 
	C290.006134,332.509399 290.008118,335.507050 290.008118,339.003784 
z"/>
<path fill="#D6A553" opacity="1.000000" stroke="none" 
	d="
M167.113312,318.593170 
	C173.364471,322.039734 175.593658,327.932709 177.988770,333.641296 
	C181.249252,341.412415 184.171295,349.328857 187.557190,357.043091 
	C190.851349,364.548340 195.622894,370.510803 205.402756,370.288513 
	C199.460480,374.482208 189.706528,373.717560 184.282425,368.746368 
	C180.586029,365.358582 177.543823,361.401184 175.962494,356.470215 
	C174.093765,350.643158 167.518768,347.547272 162.050659,350.167969 
	C159.617310,351.334167 159.400848,354.492065 158.174744,356.727875 
	C156.723526,359.374237 160.825867,358.344513 160.922607,360.187531 
	C156.558701,361.323273 151.115204,361.296814 146.165955,359.841766 
	C155.224503,358.639832 154.339035,350.639740 157.514938,345.674011 
	C160.017242,341.761505 161.124786,336.980530 163.109024,332.704620 
	C164.385483,329.953949 165.752075,327.339447 163.171234,324.734741 
	C160.522003,322.061035 158.401520,317.890259 152.962387,321.394165 
	C155.986145,316.595245 160.736938,315.773346 167.113312,318.593170 
z"/>
<path fill="#D6A553" opacity="1.000000" stroke="none" 
	d="
M213.159485,324.674530 
	C210.963333,323.643433 209.346313,322.575928 206.864883,323.449951 
	C204.447479,324.301392 202.707352,325.426239 202.135590,327.743317 
	C201.485870,330.376282 203.802307,331.883606 205.528183,332.689362 
	C209.682373,334.628723 213.035187,337.682465 216.870865,340.041382 
	C222.486588,343.494934 224.550552,349.715271 222.953568,356.909241 
	C222.047379,360.991272 216.581070,364.961060 211.165298,366.054382 
	C203.408936,367.620117 196.576401,366.960815 192.027023,359.490692 
	C189.347366,355.090698 189.071640,350.658539 191.930695,346.148865 
	C192.574890,345.132721 193.111282,343.704956 194.334366,344.259125 
	C195.504990,344.789490 195.121918,346.140778 194.409622,347.231689 
	C191.234634,352.094360 193.556107,355.905518 196.912537,359.415253 
	C200.295425,362.952698 204.351990,363.636292 208.884979,361.957245 
	C211.667038,360.926727 213.425583,358.948883 213.963135,356.075470 
	C214.558029,352.895691 213.603760,350.236542 210.796661,348.364838 
	C207.141556,345.927673 203.530792,343.424042 199.878616,340.982422 
	C194.900024,337.653992 192.564163,332.235779 194.256973,327.388733 
	C195.862823,322.790680 200.772705,319.206940 206.110504,319.933380 
	C208.888336,320.311432 211.783203,320.229248 214.583939,319.946350 
	C218.880386,319.512390 219.926193,321.169434 218.580658,325.057434 
	C218.062790,326.553833 217.936279,328.185669 217.597672,329.929718 
	C214.780518,329.370667 215.524368,325.934113 213.159485,324.674530 
z"/>
<path fill="#D6A553" opacity="1.000000" stroke="none" 
	d="
M162.158112,308.385132 
	C156.933319,310.101410 153.240967,313.146301 151.022003,317.792023 
	C144.229416,332.013214 137.262787,346.157715 131.538635,360.863831 
	C131.255966,361.590088 130.746201,362.227936 130.018997,363.450073 
	C125.778198,354.334381 121.899994,345.513092 117.591393,336.907288 
	C114.722816,331.177704 113.818306,324.094574 107.232925,320.358246 
	C113.382446,320.358246 119.531975,320.358246 126.428169,320.358246 
	C121.487122,324.918732 125.624321,328.631317 126.929749,332.469208 
	C128.426804,336.870575 130.472198,341.085419 132.588593,346.116302 
	C136.192261,337.794800 139.652817,330.048737 142.902252,322.215118 
	C145.105637,316.903259 148.031021,312.253113 152.713028,308.741516 
	C155.988907,306.284546 159.590271,307.067505 163.162613,307.150940 
	C163.155518,307.301514 163.208466,307.511902 163.129639,307.591003 
	C162.922607,307.798737 162.658173,307.949280 162.158112,308.385132 
z"/>
<path fill="#D6A453" opacity="1.000000" stroke="none" 
	d="
M271.763489,285.320648 
	C274.079315,283.126587 272.463837,279.385376 275.456787,276.572052 
	C278.468658,286.973633 282.171631,296.802246 278.705231,307.493652 
	C278.114655,309.315247 277.218109,311.602936 275.105957,311.772247 
	C272.900238,311.949066 272.790955,309.358002 271.999542,307.874359 
	C268.850281,301.970551 270.221405,295.869934 271.615021,289.862640 
	C271.923401,288.533417 271.852325,287.274414 271.931946,285.593811 
	C271.883209,285.201691 271.797943,285.275879 271.763489,285.320648 
z"/>
<path fill="#D5A453" opacity="1.000000" stroke="none" 
	d="
M69.246742,187.767197 
	C73.001305,188.863190 74.810051,191.062729 75.006607,194.613281 
	C75.188126,197.892166 73.573425,199.803421 70.974510,201.780762 
	C67.842796,204.163452 65.805641,202.561127 63.556107,200.990570 
	C60.618145,198.939407 58.522514,195.882339 60.436047,192.602631 
	C62.086582,189.773682 64.339973,186.262802 69.246742,187.767197 
z"/>
<path fill="#D6A452" opacity="1.000000" stroke="none" 
	d="
M455.204529,396.301819 
	C451.399109,399.854065 447.150116,399.819305 444.275513,396.494354 
	C442.322601,394.235443 442.500366,387.811768 444.568237,385.919159 
	C447.710205,383.043427 453.734619,383.192505 456.033081,386.684906 
	C457.978302,389.640472 458.178925,393.063599 455.204529,396.301819 
z"/>
<path fill="#D6A553" opacity="1.000000" stroke="none" 
	d="
M209.476685,466.023346 
	C213.026978,467.843323 215.275772,470.243652 214.367203,474.160950 
	C213.143600,479.436401 210.850662,480.883423 204.984360,479.957062 
	C200.320862,479.220642 199.687119,475.740906 199.993149,471.787323 
	C200.363220,467.006165 203.410873,465.797150 207.565674,465.996521 
	C208.064270,466.020447 208.564850,466.003265 209.476685,466.023346 
z"/>
<path fill="#D6A552" opacity="1.000000" stroke="none" 
	d="
M60.698826,278.318756 
	C63.170475,281.811798 62.139694,284.934387 59.366039,286.623566 
	C56.893719,288.129242 54.162483,287.034363 52.537922,284.092590 
	C51.361607,281.962524 52.048088,280.055634 53.278675,278.654724 
	C55.258389,276.401031 57.867878,276.574463 60.698826,278.318756 
z"/>
<path fill="#D5A454" opacity="1.000000" stroke="none" 
	d="
M479.792419,191.719818 
	C482.794464,191.036102 485.807465,189.798553 487.816864,192.584076 
	C488.889038,194.070343 489.873718,196.081207 488.401917,198.080276 
	C486.761597,200.308167 484.345520,200.352097 482.075806,199.868713 
	C480.234833,199.476639 478.933929,198.055099 479.016479,195.910217 
	C479.066528,194.610474 478.672607,193.243729 479.792419,191.719818 
z"/>
<path fill="#D6A453" opacity="1.000000" stroke="none" 
	d="
M99.174408,402.663879 
	C97.002342,399.379547 98.109200,397.229401 100.865311,395.603821 
	C103.259468,394.191772 105.396362,395.042999 106.890411,396.946198 
	C108.616364,399.144806 108.422394,401.326996 106.163406,403.424652 
	C103.578949,405.824493 101.520958,405.341583 99.174408,402.663879 
z"/>
<path fill="#D6A553" opacity="1.000000" stroke="none" 
	d="
M102.004143,128.913544 
	C101.978844,124.711761 104.315041,123.907562 107.529182,123.975845 
	C110.323799,124.035202 111.711403,125.401314 111.997116,128.089630 
	C112.261147,130.573853 111.156418,132.456680 108.824837,132.869904 
	C105.879173,133.391998 102.763664,133.396774 102.004143,128.913544 
z"/>
<path fill="#D6A453" opacity="1.000000" stroke="none" 
	d="
M464.554077,381.751587 
	C461.542969,381.870422 458.665070,381.855957 458.116119,378.512421 
	C457.803741,376.609985 457.111877,374.124542 460.031616,373.126770 
	C462.578522,372.256439 465.138947,371.820343 466.762421,374.510803 
	C468.452332,377.311462 468.019775,379.867889 464.554077,381.751587 
z"/>
<path fill="#D6A453" opacity="1.000000" stroke="none" 
	d="
M114.040184,119.600273 
	C111.319023,121.339096 108.509865,122.138176 106.390404,119.585022 
	C105.032898,117.949745 103.853607,115.659134 106.044823,113.432945 
	C108.121147,111.323494 110.739784,111.382027 112.837303,112.546402 
	C115.444153,113.993523 115.899063,116.611427 114.040184,119.600273 
z"/>
<path fill="#D5A453" opacity="1.000000" stroke="none" 
	d="
M96.346741,383.871033 
	C97.289124,389.792908 95.831024,392.483643 92.340408,391.592072 
	C90.771591,391.191376 87.961288,391.399628 88.076004,388.506592 
	C88.148407,386.680664 86.996391,384.372040 88.970406,383.115570 
	C91.263504,381.655914 93.852180,381.033447 96.346741,383.871033 
z"/>
<path fill="#D3A452" opacity="1.000000" stroke="none" 
	d="
M493.304230,213.184235 
	C490.066467,215.633423 487.191071,216.526962 485.027863,212.561035 
	C483.948120,210.581497 484.108429,208.416412 485.819397,206.864655 
	C487.583221,205.264938 489.996918,205.525375 491.811401,206.475754 
	C494.341766,207.801102 494.534637,210.317169 493.304230,213.184235 
z"/>
<path fill="#D5A451" opacity="1.000000" stroke="none" 
	d="
M68.751862,212.452499 
	C68.620598,214.760574 70.132385,217.153107 67.230324,218.398102 
	C65.062248,219.328201 63.096889,219.295807 61.170414,218.007965 
	C59.153706,216.659760 59.893650,214.654465 59.960850,212.779495 
	C60.016926,211.215027 60.714405,210.030975 62.215416,210.097122 
	C64.445381,210.195358 67.322083,208.670349 68.751862,212.452499 
z"/>
<path fill="#D6A453" opacity="1.000000" stroke="none" 
	d="
M353.656525,65.959457 
	C351.095703,65.650665 348.265869,67.147690 347.119751,64.165939 
	C346.409515,62.318073 345.416962,59.976715 347.422394,58.369999 
	C349.260223,56.897514 351.633209,56.247639 353.897583,57.486019 
	C356.117432,58.700043 356.408600,60.933079 355.870514,63.141430 
	C355.623383,64.155632 354.699524,65.004944 353.656525,65.959457 
z"/>
<path fill="#D6A552" opacity="1.000000" stroke="none" 
	d="
M223.946228,485.999207 
	C220.015015,486.420746 218.905502,484.840179 218.895981,481.404449 
	C218.887604,478.394043 220.193741,477.192596 222.818665,477.043152 
	C225.108780,476.912781 227.746902,476.902618 227.919617,480.050842 
	C228.059937,482.608826 229.159302,486.180969 223.946228,485.999207 
z"/>
<path fill="#D6A453" opacity="1.000000" stroke="none" 
	d="
M359.811035,67.193268 
	C358.576416,64.369118 358.568512,62.254196 362.010132,62.034679 
	C363.992493,61.908237 365.154175,62.879234 364.987396,64.998833 
	C364.715454,68.455292 362.625305,68.411377 359.811035,67.193268 
z"/>
<path fill="#D5A353" opacity="1.000000" stroke="none" 
	d="
M113.834274,119.983536 
	C114.566109,121.490341 115.410744,120.013939 116.199440,119.990219 
	C118.223961,119.929321 120.054955,120.299660 119.848778,122.682854 
	C119.734116,124.008080 119.564934,125.997665 117.201599,126.004173 
	C114.521851,126.011551 113.801262,124.528046 114.059113,122.226929 
	C114.128685,121.606041 114.493774,121.018272 114.311951,120.157593 
	C113.900696,119.899887 113.874985,119.977951 113.834274,119.983536 
z"/>
<path fill="#D6A453" opacity="1.000000" stroke="none" 
	d="
M494.235229,265.371033 
	C496.646698,263.425812 498.696869,263.257141 499.887146,266.105377 
	C500.679932,268.002441 499.391907,269.307281 497.703949,269.614044 
	C494.763611,270.148529 493.674194,268.512787 494.235229,265.371033 
z"/>
<path fill="#D7A355" opacity="1.000000" stroke="none" 
	d="
M444.423584,408.245880 
	C442.095306,409.258636 440.726685,408.375153 440.094299,406.613403 
	C439.645905,405.364380 440.040283,404.048126 441.391083,403.273956 
	C443.002045,402.350708 444.526703,403.446045 445.350922,404.210327 
	C446.397552,405.180786 446.934052,407.071564 444.423584,408.245880 
z"/>
<path fill="#D5A453" opacity="1.000000" stroke="none" 
	d="
M72.016769,210.143799 
	C72.415161,206.642776 74.471443,206.512909 76.677162,207.409821 
	C78.372131,208.099060 78.604897,210.439667 77.701828,211.155746 
	C76.017204,212.491547 73.670708,213.038284 72.016769,210.143799 
z"/>
<path fill="#D6A452" opacity="1.000000" stroke="none" 
	d="
M262.075500,46.138870 
	C263.610504,43.276016 265.579071,43.285431 267.423859,45.072304 
	C268.344299,45.963802 268.633087,48.062351 267.443787,48.548145 
	C265.410522,49.378651 262.813416,49.924496 262.075500,46.138870 
z"/>
<path fill="#DBA255" opacity="1.000000" stroke="none" 
	d="
M355.296753,73.958191 
	C352.337433,72.540634 352.298981,70.502922 353.979126,68.619980 
	C355.200317,67.251373 357.166626,67.773560 357.562347,69.376190 
	C357.950195,70.946861 359.839081,73.916611 355.296753,73.958191 
z"/>
<path fill="#D6A453" opacity="1.000000" stroke="none" 
	d="
M296.340210,301.903961 
	C296.018707,300.765320 296.038086,299.697052 296.078552,298.229523 
	C298.532623,301.511230 298.532623,301.511230 296.340210,301.903961 
z"/>
<path fill="#D6A453" opacity="1.000000" stroke="none" 
	d="
M280.133606,270.679993 
	C279.464325,271.001007 279.092834,271.000763 278.442780,271.000610 
	C277.882629,267.866180 277.882629,267.866180 279.769470,268.040741 
	C280.109741,268.062561 280.018158,267.981537 279.975647,267.937561 
	C280.674683,268.598999 280.490540,269.491516 280.133606,270.679993 
z"/>
<path fill="#D6A453" opacity="1.000000" stroke="none" 
	d="
M278.095337,279.345032 
	C279.514221,279.461670 279.664612,280.390839 279.061981,281.831024 
	C277.806061,281.615631 278.053223,280.599701 278.095337,279.345032 
z"/>
<path fill="#000000" opacity="1.000000" stroke="none" 
	d="
M367.809387,151.157593 
	C361.177551,156.355042 354.210968,160.149704 346.909637,163.307220 
	C346.665985,162.871033 346.422333,162.434845 346.178680,161.998657 
	C352.855804,158.337708 359.532959,154.676743 366.574280,150.973999 
	C367.274475,150.839111 367.610474,150.746033 367.809387,151.157593 
z"/>
<path fill="#000000" opacity="1.000000" stroke="none" 
	d="
M210.446228,167.213684 
	C202.765549,163.884262 195.949493,160.078690 189.627182,155.373276 
	C197.168533,157.522308 203.485916,162.075577 210.458679,166.055176 
	C210.786118,166.655426 210.874756,166.999832 210.446228,167.213684 
z"/>
<path fill="#000000" opacity="1.000000" stroke="none" 
	d="
M279.998413,271.333801 
	C279.852905,270.225494 279.870026,269.449738 279.910156,268.283813 
	C282.696747,270.417542 282.018860,274.436768 284.111389,277.665466 
	C284.296417,278.535767 284.121368,278.909058 283.361755,279.018127 
	C282.082489,276.474548 281.121735,274.070465 279.998413,271.333801 
z"/>
<path fill="#000000" opacity="1.000000" stroke="none" 
	d="
M182.701660,151.819214 
	C185.596863,150.673706 187.351486,152.897934 190.219177,154.602951 
	C186.689957,155.262192 184.947998,153.253342 182.701660,151.819214 
z"/>
<path fill="#000000" opacity="1.000000" stroke="none" 
	d="
M339.153198,166.809967 
	C341.209442,164.380798 343.728027,163.962891 346.102234,163.124619 
	C345.159271,165.655014 342.727875,165.959091 340.409607,166.999634 
	C339.671661,167.140244 339.306732,167.237991 339.153198,166.809967 
z"/>
<path fill="#000000" opacity="1.000000" stroke="none" 
	d="
M302.227020,257.251953 
	C298.678772,257.199921 299.669830,253.545532 298.153900,251.651840 
	C300.821228,252.464310 300.565979,255.321030 302.227020,257.251953 
z"/>
<path fill="#000000" opacity="1.000000" stroke="none" 
	d="
M214.566864,168.778442 
	C216.867645,169.212402 218.451279,169.890213 219.824081,171.473953 
	C217.568192,172.707352 216.287613,170.966583 214.531982,169.939789 
	C214.211960,169.342087 214.131577,168.997543 214.566864,168.778442 
z"/>
<path fill="#EEDAB8" opacity="1.000000" stroke="none" 
	d="
M271.121094,165.138443 
	C271.977783,165.356964 272.841492,165.494064 272.996521,165.901077 
	C273.376038,166.897568 272.372772,166.847397 271.850891,166.785538 
	C270.995819,166.684189 269.701050,166.647369 271.121094,165.138443 
z"/>
<path fill="#D6A453" opacity="1.000000" stroke="none" 
	d="
M283.155609,279.138794 
	C283.358002,278.761536 283.672760,278.644409 284.096497,278.282532 
	C284.777802,278.934784 286.091278,280.040680 285.098419,280.874084 
	C284.119446,281.695770 283.771942,280.087555 283.155609,279.138794 
z"/>
<path fill="#000000" opacity="1.000000" stroke="none" 
	d="
M333.161102,170.628250 
	C331.967651,171.718506 330.858429,172.359787 329.411438,173.040833 
	C328.727509,173.168198 328.381287,173.255798 328.178406,172.827271 
	C329.041290,170.809235 330.603973,171.149933 332.075256,170.504639 
	C332.641205,170.256424 332.943268,170.217850 333.161102,170.628250 
z"/>
<path fill="#000000" opacity="1.000000" stroke="none" 
	d="
M316.675781,188.582123 
	C315.505798,191.412170 313.462372,189.510910 311.754974,189.204834 
	C313.195068,189.125412 314.635193,189.045990 316.417236,188.827133 
	C316.759216,188.687714 316.705200,188.616028 316.675781,188.582123 
z"/>
<path fill="#000000" opacity="1.000000" stroke="none" 
	d="
M334.849060,169.390503 
	C335.903625,167.611069 337.468445,167.323410 339.099945,166.488342 
	C339.477448,166.409836 339.590302,166.535477 339.869873,166.851807 
	C339.054047,168.304031 337.569611,168.702515 335.928162,169.488922 
	C335.364410,169.745743 335.061676,169.793533 334.849060,169.390503 
z"/>
<path fill="#000000" opacity="1.000000" stroke="none" 
	d="
M210.504242,166.502991 
	C212.057373,166.976639 213.417343,167.642227 214.929916,168.605865 
	C214.951401,169.034973 214.820297,169.166016 214.490768,169.491852 
	C212.934448,169.018265 211.576538,168.349869 210.073822,167.382324 
	C210.056351,166.953751 210.183701,166.824356 210.504242,166.502991 
z"/>
<path fill="#000000" opacity="1.000000" stroke="none" 
	d="
M252.243896,253.776855 
	C253.047012,251.987122 253.751877,250.659058 254.515686,249.219955 
	C255.808746,251.202560 253.869019,252.284851 253.385742,253.917511 
	C252.765732,254.131104 252.455673,254.184830 252.243896,253.776855 
z"/>
<path fill="#000000" opacity="1.000000" stroke="none" 
	d="
M262.891846,284.470734 
	C263.468872,283.243958 263.928162,282.391846 264.435974,281.449615 
	C265.805389,283.416504 263.921692,284.451294 263.396912,285.819916 
	C263.366638,285.898865 263.103149,285.963501 262.988312,285.922485 
	C262.343018,285.692139 262.520416,285.270660 262.891846,284.470734 
z"/>
<path fill="#000000" opacity="1.000000" stroke="none" 
	d="
M285.900146,283.241302 
	C287.514923,283.475769 287.940979,284.656494 288.559082,286.077759 
	C288.592957,286.462646 288.458435,286.587646 288.118530,286.896179 
	C287.311554,286.249817 286.710022,285.419922 285.994568,284.286438 
	C285.805145,283.794952 285.729675,283.607147 285.900146,283.241302 
z"/>
<path fill="#000000" opacity="1.000000" stroke="none" 
	d="
M250.785339,256.438141 
	C251.008423,255.098053 250.976379,254.214066 252.100555,253.517731 
	C252.465973,253.440704 252.589798,253.566238 252.894714,253.884583 
	C252.992767,254.906570 253.023178,255.783691 251.910248,256.485168 
	C251.334015,256.777435 250.994064,256.862274 250.785339,256.438141 
z"/>
<path fill="#000000" opacity="1.000000" stroke="none" 
	d="
M181.733429,149.439209 
	C182.729263,151.179504 181.552170,151.022995 180.935425,150.838226 
	C180.440872,150.690063 180.110352,149.994446 179.707031,149.541779 
	C180.273956,149.403488 180.840897,149.265182 181.733429,149.439209 
z"/>
<path fill="#000000" opacity="1.000000" stroke="none" 
	d="
M332.520020,170.493866 
	C332.878204,169.681870 333.337463,168.945053 334.628967,168.978180 
	C335.063263,169.063446 335.187286,169.187195 335.489258,169.504456 
	C335.126648,170.308151 334.673157,171.049667 333.387207,171.040222 
	C332.951569,170.949051 332.826263,170.820908 332.520020,170.493866 
z"/>
<path fill="#000000" opacity="1.000000" stroke="none" 
	d="
M367.118408,151.118332 
	C367.176910,149.927368 368.205566,150.057083 369.087463,149.442520 
	C369.464935,149.405869 369.588928,149.538803 369.893372,149.876221 
	C369.808899,151.130798 368.729767,150.792145 367.890076,151.447784 
	C367.547638,151.542999 367.422943,151.423721 367.118408,151.118332 
z"/>
<path fill="#000000" opacity="1.000000" stroke="none" 
	d="
M248.499237,205.474564 
	C248.704544,204.656891 249.102875,204.039246 249.501190,203.421600 
	C250.386322,204.152573 249.947449,204.977158 249.375732,205.930328 
	C248.952591,205.938370 248.822418,205.806473 248.499237,205.474564 
z"/>
<path fill="#000000" opacity="1.000000" stroke="none" 
	d="
M251.485504,256.500916 
	C250.721008,257.177673 251.333527,259.481415 249.738342,258.806763 
	C248.805557,258.412231 250.314545,257.252625 250.576996,256.131561 
	C251.043411,256.055878 251.170212,256.182526 251.485504,256.500916 
z"/>
<path fill="#000000" opacity="1.000000" stroke="none" 
	d="
M328.887085,172.886871 
	C328.740082,173.893204 328.207520,174.225235 327.422211,173.671539 
	C327.371307,173.635651 327.721313,173.031158 328.103271,172.501160 
	C328.447968,172.438461 328.574219,172.565811 328.887085,172.886871 
z"/>
<path fill="#000000" opacity="1.000000" stroke="none" 
	d="
M303.134918,259.870667 
	C302.052277,259.736725 302.031586,259.023560 302.274963,257.892639 
	C302.427399,257.526062 302.389221,257.568359 302.382660,257.572754 
	C302.700653,258.022308 303.025238,258.467468 303.527039,259.119324 
	C303.578217,259.447571 303.452148,259.569092 303.134918,259.870667 
z"/>
<path fill="#000000" opacity="1.000000" stroke="none" 
	d="
M280.541443,258.500061 
	C280.823059,258.011108 280.977997,257.042542 281.756348,257.553314 
	C281.922394,257.662262 281.675385,258.400574 281.349884,258.959045 
	C280.960175,258.943604 280.839294,258.818054 280.541443,258.500061 
z"/>
<path fill="#000000" opacity="1.000000" stroke="none" 
	d="
M299.112793,200.887268 
	C298.100983,200.736267 297.778381,200.196609 298.326416,199.408051 
	C298.358673,199.361633 298.966278,199.715042 299.497253,200.101990 
	C299.561096,200.447922 299.433777,200.574234 299.112793,200.887268 
z"/>
<path fill="#D6A453" opacity="1.000000" stroke="none" 
	d="
M286.038696,283.147522 
	C286.146088,283.063263 286.048981,283.533539 285.964813,283.758179 
	C285.734619,283.716583 285.751495,283.466278 286.038696,283.147522 
z"/>
<path fill="#000000" opacity="1.000000" stroke="none" 
	d="
M327.168152,325.679077 
	C332.059021,332.419525 330.274628,338.337006 323.270599,339.854156 
	C321.121185,340.319733 319.740448,339.995911 319.929871,337.266937 
	C320.102325,334.782440 319.963043,332.276459 319.964172,329.779938 
	C319.967255,322.985504 320.558624,322.610718 327.168152,325.679077 
z"/>
<path fill="#000000" opacity="1.000000" stroke="none" 
	d="
M360.327423,345.996857 
	C358.513763,345.967743 357.761139,345.718201 358.445770,343.958069 
	C359.554565,341.107269 360.617035,338.258667 362.524902,335.463074 
	C363.741486,339.014008 366.014130,341.942352 366.522736,346.000183 
	C364.570160,346.000183 362.658813,346.000183 360.327423,345.996857 
z"/>
<path fill="#000000" opacity="1.000000" stroke="none" 
	d="
M165.587448,339.602936 
	C166.316956,337.924042 166.831696,336.567413 167.671432,334.354218 
	C169.165909,338.577545 170.384628,342.021576 171.707260,345.759277 
	C168.766464,345.759277 166.062820,345.759277 163.078094,345.759277 
	C163.711288,343.655853 163.913452,341.570312 165.587448,339.602936 
z"/>
</svg>